<?xml version="1.0" standalone="no"?>
<!DOCTYPE svg PUBLIC "-//W3C//DTD SVG 20010904//EN"
 "http://www.w3.org/TR/2001/REC-SVG-20010904/DTD/svg10.dtd">
<svg version="1.0" xmlns="http://www.w3.org/2000/svg"
 width="120.000000pt" height="120.000000pt" viewBox="0 0 120.000000 120.000000"
 preserveAspectRatio="xMidYMid meet">
<metadata>
Created by potrace 1.14, written by Peter Selinger 2001-2017
</metadata>
<g transform="translate(0.000000,120.000000) scale(0.100000,-0.100000)"
fill="#000000" stroke="none">
<path d="M10 1191 c0 -20 32 -179 46 -226 33 -115 112 -211 223 -272 102 -55
162 -95 204 -132 20 -18 37 -30 37 -26 0 19 -120 184 -215 295 -103 121 -236
306 -250 349 -6 20 -45 31 -45 12z"/>
<path d="M180 1193 c1 -14 54 -80 85 -105 17 -14 62 -44 102 -66 39 -23 85
-54 102 -68 17 -14 31 -22 32 -17 0 4 -28 65 -63 135 l-63 127 -97 1 c-54 0
-98 -3 -98 -7z"/>
<path d="M470 1195 c0 -29 123 -304 167 -374 19 -29 32 -55 30 -57 -10 -10
-102 104 -125 154 -13 29 -26 52 -27 50 -8 -7 24 -157 44 -206 25 -62 75 -142
122 -197 l34 -39 -43 24 c-69 39 -146 149 -198 284 l-23 61 -1 -43 c-1 -117
81 -330 160 -416 24 -26 41 -49 38 -51 -3 -3 -60 38 -128 90 -140 109 -185
135 -233 135 -19 0 -65 15 -103 34 l-69 35 84 -81 c46 -44 152 -131 235 -194
260 -196 315 -239 311 -242 -6 -6 -68 30 -120 69 -27 20 -96 64 -151 98 -96
56 -108 60 -192 70 -118 13 -149 29 -218 116 -8 11 -5 0 8 -24 13 -25 47 -71
76 -103 71 -76 145 -112 282 -134 105 -16 105 -17 162 -69 31 -29 82 -65 113
-80 31 -15 54 -30 51 -32 -9 -9 -96 26 -143 57 -25 17 -47 29 -50 26 -8 -8 28
-68 69 -112 l41 -44 127 0 127 0 6 40 c3 22 16 62 29 88 28 58 56 66 93 26
l25 -27 0 44 c0 108 -51 227 -165 384 -165 227 -237 360 -297 544 l-33 101
-57 0 c-32 0 -58 -2 -58 -5z"/>
<path d="M696 1143 c-6 -59 3 -145 23 -218 15 -59 62 -127 117 -171 105 -86
125 -109 159 -178 19 -39 35 -65 35 -58 0 31 -64 167 -146 312 -79 137 -129
255 -148 343 -11 49 -33 32 -40 -30z"/>
<path d="M1045 707 c-13 -49 1 -128 45 -242 68 -178 65 -277 -14 -407 -19 -32
-31 -58 -27 -58 15 0 90 87 111 129 28 55 36 141 21 211 -6 29 -34 106 -61
170 -27 65 -54 142 -58 171 -8 49 -9 52 -17 26z"/>
<path d="M297 162 c39 -39 102 -91 139 -116 65 -44 72 -46 138 -46 l69 0 -40
42 c-21 24 -46 53 -55 66 -12 18 -36 28 -103 43 -48 10 -113 31 -144 46 -31
15 -60 29 -66 31 -5 2 22 -28 62 -66z"/>
<path d="M976 90 c-36 -91 -1 -128 43 -45 23 44 23 46 6 65 -25 28 -31 26 -49
-20z"/>
<path d="M244 33 c9 -18 24 -33 33 -33 15 0 15 2 2 12 -8 7 -22 22 -33 33 -18
20 -18 19 -2 -12z"/>
</g>
</svg>
